<svg width="896" height="276" viewBox="0 0 896 276" fill="none" xmlns="http://www.w3.org/2000/svg">
<g clip-path="url(#clip0_217_1613)">
<rect width="896" height="276" rx="12" fill="url(#paint0_linear_217_1613)"/>
<path d="M1142.5 372.408L1183 323.284V231.577V229.575V202.946V200.652V142.543V138.685V128.801V126.721V87.44V84.949V65.925V63.905V48.666V46.022V-15.083H1112.32H1109.27H1092.03H1088.21H999.548L838.277 -15.064L838.276 -15.083H835.709L832.902 -16L833.819 -15.083H685.905H682.363H598.079H594.757H473.159H469.522H398.316H396.283H290.098H286.444H199.27H197.15H142.46H138.761H45.669H43.096H-19V-10.968V-8.836V76.449V78.721V84.372V86.703V189.905V192.067V220.224V222.393V345.007V349.48V412.166V414.325V449.614V451.848V495.872V499.704V613.825V616.875V627.968V629.968V660.534V666.669V786.917H-11.032L-10.857 786.134L2.796 724.695L105.594 628.968L108.175 628.947L106.755 627.887L107.76 626.951L105.525 626.969L25.507 567.222L203.618 524.044L205.036 523.7L204.263 522.128L172.125 456.781L173.038 456.319L172.536 456.074L277.041 358.536L278.076 358.013L278.96 357.924L305.266 359.093L196.156 460.929L300.476 517.016L300.527 515.403L305.515 359.105L377.903 362.322L306.593 271.564L450.121 324.722L451.276 325.15L452.137 324.695L554.382 270.597L554.704 270.872L554.803 270.729L641.514 321.992L642.054 321.553L762.841 223.618L763.392 223.971L763.477 223.647L917.594 270.648L940.401 192.455L1069.54 303.614L1126.1 235.742L1142.5 372.408ZM303.37 363.597L298.579 513.724L199.559 460.487L303.37 363.597ZM-15.319 677.345L0.85 724.235L-12.635 784.917H-17V672.471L-15.319 677.345ZM-17 629.953L102.633 628.992L2.331 722.395L-12.407 679.655L-17 666.335V629.953ZM80.287 499.068L-17 450.61V413.511L35.356 392.214L35.364 392.582L35.866 392.247L73.83 483.54L80.287 499.068ZM20.299 568.484L20.395 568.461L-17 611.522V502.972L21.962 566.636L20.299 568.484ZM136.55 340.676L132.88 328.646L275.277 357.446L171.28 454.511L136.55 340.676ZM125.632 433.194L38.329 390.607L130.87 328.913L156.089 411.574L169.163 454.428L125.632 433.194ZM734.727 203.259L644.93 145.821L678.227 146.337L781.162 147.933L778.279 158.985L762.152 220.801L734.727 203.259ZM1043.65 136.622L962.655 110.3L1000.7 41.6L1089.48 151.52L1043.65 136.622ZM191.287 287.997L232.68 259.957L275.668 355.486L133.967 326.827L191.287 287.997ZM1012.55 171.938L941.275 189.309L961.877 112.189L965.087 113.356L964.846 113.114L1088.72 153.373L1012.55 171.938ZM820.634 60.827L957.506 110.599L783.252 145.769L764.068 40.258L820.634 60.827ZM939.169 189.447L786.742 147.107L959.811 112.176L954.61 131.646L939.169 189.447ZM680.418 144.37L644.042 143.806L658.3 131.346L762.103 40.635L772.319 96.818L781.249 145.934L680.418 144.37ZM391.746 61.735L463.731 191.991L321.045 134.916L295.709 124.781L385.32 50.104L391.746 61.735ZM230.171 259.239L131.504 326.078L36.021 244.386L230.171 259.239ZM288.427 129.595L292.893 126.816L297.267 190.97L302.412 266.433L221.659 171.429L223.733 170.629L222.751 170.461L288.427 129.595ZM221.494 174.322L249.518 207.291L301.114 267.993L235.771 257.862L236.036 257.682L233.974 257.524L223.319 186.489L221.494 174.322ZM172.88 64.954L291.742 125.177L220.424 169.553L172.88 64.954ZM463.44 194.03L304.517 267.873L294.886 126.607L320.936 137.027L463.44 194.03ZM302.329 270.206L277.192 353.997L234.772 259.732L302.329 270.206ZM212.073 175.129L219.182 172.385L220.699 182.498L231.913 257.265L231.436 257.191L231.501 257.336L37.532 242.496L212.073 175.129ZM87.593 147.384L170.477 64.501L218.295 169.699L87.593 147.384ZM429.078 61.234L591.538 104.728L466.298 192.503L387.621 50.136L429.078 61.234ZM637.411 88.48L757.828 41.716L641.416 143.446L595.795 104.642L637.411 88.48ZM767.571 37.932L765.724 37.851L836.455 -12.447L957.298 108.395L765.614 38.692L767.571 37.932ZM1091.81 154.713L1125.12 231.903L944.23 190.649L1015.53 173.273L1087.82 155.653L1087.4 155.967L1091.81 154.713ZM523.954 176.663L471.337 191.416L521.19 156.476L593.81 105.58L638.655 143.723L637.921 143.712L639.006 144.406L523.954 176.663ZM35.2 295.14L34.094 245.37L129.779 327.235L37.283 388.9L35.2 295.14ZM76.074 167.234L85.895 149.434L86.644 149.882L86.601 149.243L216.238 171.377L208.544 174.347L35.248 241.233L76.074 167.234ZM174.498 63.531L382.604 49.763L303.655 115.554L293.643 123.897L174.498 63.531ZM437.672 42.852L537.659 29.951L570.739 74.705L591.364 102.61L431.172 59.724L390.761 48.905L437.672 42.852ZM540.165 29.975L757.972 39.514L594.219 103.107L554.078 48.798L540.165 29.975ZM840.229 -11.503L998.18 40.094L997.64 40.425L998.966 40.607L960.961 109.23L840.229 -11.503ZM924.733 192.375L766.418 220.715L766.724 220.467L764.154 221.047L779.808 161.041L783.161 148.187L935.378 190.469L924.733 192.375ZM608.963 256.078L556.808 267.85L641.694 146.126L733.311 204.728L760.079 221.85L758.512 222.131L758.87 222.24L608.963 256.078ZM491.743 214.61L468.038 194.417L517.901 180.437L639.007 146.482L554.322 267.918L491.743 214.61ZM464.767 195.619L450.353 322.674L306.216 269.29L464.767 195.619ZM76.759 485.372L38.264 392.8L124.959 435.09L168.544 456.351L82.75 499.778L76.759 485.372ZM159.227 59.251L169.008 63.14L86.369 145.78L78.423 27.119L159.227 59.251ZM1096.04 153.649L1095.81 153.576L1181 129.369V141.984L1126.96 231.138L1094.17 155.146L1095.27 155.503L1094.15 154.109L1096.04 153.649ZM943.581 192.552L1124.06 233.715L1122.62 234.523L1124.59 234.427L1069.3 300.77L943.581 192.552ZM767.031 222.639L921.185 195.043L938.463 191.95L916.24 268.142L767.031 222.639ZM557.19 269.814L608.272 258.283L758.819 224.301L641.334 319.558L557.19 269.814ZM452.41 322.284L454.802 301.197L466.744 195.94L491.856 217.332L552.342 268.858L551.836 268.972L552.466 269.345L452.41 322.284ZM373.637 360.129L278.707 355.909L304.022 271.526L373.637 360.129ZM113.822 505.832L85.353 500.702L170.181 457.764L170.301 458.159L170.487 457.985L201.815 521.686L113.822 505.832ZM198.747 523.166L26.11 565.017L32.55 557.861L82.475 502.391L84.192 503.246L83.868 502.466L111 507.355L198.747 523.166ZM-17 614.572L23.35 568.107L102.218 626.994L-17 627.953V614.572ZM-17 452.845L80.011 501.165L79.126 501.613L80.295 501.824L23.358 565.087L-16.916 499.278L-17 499.141V452.845ZM-17 411.352V345.479L32.134 247.212L35.288 389.123L34.384 388.682L35.013 390.194L-17 411.352ZM-17 223.234L11.145 235.047L30.368 243.116L28.558 243.815L31.418 244.034L30.843 245.077L30.996 245.018L-17 341.007V223.234ZM-17 191.247L39.318 168.108L83.269 150.05L33.961 239.423L33.954 239.099L32.722 241.564L31.994 240.942L32.009 241.637L11.685 233.106L-17 221.065V191.247ZM39.27 165.965L-17 189.084V87.9L83.292 147.878L39.27 165.965ZM-17 85.569V77.642L76.426 27.222L84.393 146.206L-17 85.569ZM-3.102 -2.976L74.894 25.775L7.28 62.265L-17 75.37V-8.099L-3.102 -2.976ZM69.393 17.401L74.256 23.408L-3.36 -5.202L-17 -10.231V-13.083H44.714L69.393 17.401ZM135.65 -13.083L77.533 24.277L73.409 19.182L47.288 -13.083H135.65ZM196.445 -13.083L170.225 61.366L168.701 60.594L168.853 60.927L159.099 57.048L79.681 25.466L79.744 25.432L79.549 25.36L139.349 -13.083H196.445ZM355.391 29.998L382.557 47.76L277.603 54.704L172.238 61.675L198.566 -13.083H289.503L355.391 29.998ZM395.915 -13.083L384.896 46.901L358.85 29.871L293.157 -13.083H395.915ZM472.559 -13.083L535.313 28.237L386.84 47.394L397.949 -13.083H472.559ZM476.196 -13.083H592.103L538.075 27.66L476.196 -13.083ZM685.286 -13.083L759.317 37.57L540.94 28.007L595.426 -13.083H685.286ZM688.828 -13.083H833.899L763.475 36.996L763.441 36.81L762.698 37.459L688.828 -13.083ZM999.548 -13.083V38.437L841.833 -13.083H999.548ZM1001.55 -13.083H1084.94L1058.25 3.276L1001.55 38.029V-13.083H1001.55ZM1181 -13.083V44.292L1128.52 -1.079L1114.64 -13.083H1181ZM1181 46.937V63.63L1058.28 46.748L1003.46 39.206L1033.93 20.532L1088.77 -13.083H1111.58L1181 46.937ZM1157.62 103.8L1092.55 152.136L1002.91 41.15L1111.12 56.036L1181 65.65V86.434L1157.62 103.8ZM1181 127.289L1097.36 151.056L1122.57 132.33L1181 88.925V127.289ZM1181 201.774L1174.11 205.642L1129.64 230.584L1181 145.843V201.774ZM1181 229.673L1172.77 230.074L1131.01 232.11L1173.97 208.011L1181 204.068L1181 229.673ZM1143.93 367.531L1127.98 234.607L1128.52 234.729L1128.31 234.245L1172.9 232.07L1181 231.675V322.566L1143.93 367.531Z" fill="white" fill-opacity="0.16"/>
</g>
<defs>
<linearGradient id="paint0_linear_217_1613" x1="0" y1="0" x2="1185.33" y2="381.949" gradientUnits="userSpaceOnUse">
<stop offset="0.170053" stop-color="#50CE50"/>
<stop offset="0.847266" stop-color="#DCFC77"/>
</linearGradient>
<clipPath id="clip0_217_1613">
<rect width="896" height="276" rx="12" fill="white"/>
</clipPath>
</defs>
</svg>
