<svg width="242" height="242" viewBox="0 0 242 242" fill="none" xmlns="http://www.w3.org/2000/svg">
<path d="M57.0096 127.255L57.0196 127.262C25.4982 127.453 0.00195312 153.06 0.00195312 184.624C0.00195312 216.309 25.6893 241.994 57.3742 241.994C88.9409 241.994 114.543 216.495 114.734 184.976L114.744 184.987V127.252L57.0096 127.255ZM57.3717 226.227C34.3951 226.227 15.7715 207.604 15.7715 184.627C15.7715 161.65 34.3951 143.027 57.3717 143.027C80.3482 143.027 98.9719 161.65 98.9719 184.627C98.9719 207.604 80.3482 226.227 57.3717 226.227Z" fill="#3B4B07"/>
<path d="M127.252 184.989L127.262 184.979C127.453 216.498 153.057 241.997 184.624 241.997C216.309 241.997 241.994 216.309 241.994 184.627C241.994 153.06 216.498 127.456 184.976 127.265L184.986 127.257H127.252V184.989ZM226.224 184.627C226.224 207.603 207.601 226.227 184.624 226.227C161.648 226.227 143.024 207.603 143.024 184.627C143.024 161.65 161.648 143.027 184.624 143.027C207.601 143.027 226.224 161.65 226.224 184.627Z" fill="#658024"/>
<path d="M184.994 114.744L184.979 114.737C216.5 114.546 242.001 88.9388 242.001 57.3747C242.001 25.6873 216.314 0.00244141 184.629 0.00244141C153.062 0.00244141 127.455 25.5012 127.262 57.0201L127.257 57.0101V114.744H184.994ZM184.632 15.7719C207.608 15.7719 226.232 34.3956 226.232 57.3722C226.232 80.3487 207.608 98.9724 184.632 98.9724C161.655 98.9724 143.031 80.3487 143.031 57.3722C143.031 34.3981 161.655 15.7719 184.632 15.7719Z" fill="#AACE50"/>
<path d="M114.744 57.0076L114.734 57.0177C114.548 25.4963 88.9389 0 57.3722 0C25.6874 0 0 25.6874 0 57.3697C0 88.9364 25.4963 114.541 57.0177 114.734L57.0076 114.742H114.742L114.744 57.0076ZM15.772 57.3697C15.772 34.3932 34.3957 15.7695 57.3722 15.7695C80.3488 15.7695 98.9725 34.3932 98.9725 57.3697C98.9725 80.3463 80.3488 98.9699 57.3722 98.9699C34.3982 98.9699 15.772 80.3463 15.772 57.3697Z" fill="#D4FB37"/>
</svg>
