<svg width="24" height="24" viewBox="0 0 24 24" fill="none" xmlns="http://www.w3.org/2000/svg">
<g clip-path="url(#clip0_217_8320)">
<path d="M23.806 0.104015C23.683 0.0100155 23.524 -0.0239845 23.374 0.0160155L7 4.28802V1.50002C7 1.32702 6.91 1.16602 6.763 1.07502C6.616 0.983016 6.431 0.975015 6.277 1.05302L4.277 2.05302C4.107 2.13802 4 2.31102 4 2.50002V5.07002L0.374 6.01602C0.154 6.07402 0 6.27202 0 6.50002V8.50002C0 8.65502 0.072 8.80102 0.194 8.89602C0.283 8.96402 0.391 9.00002 0.5 9.00002C0.542 9.00002 0.584 8.99502 0.626 8.98402L2 8.62502V23.5C2 23.776 2.224 24 2.5 24H4V12H20V24H21.5C21.776 24 22 23.776 22 23.5V3.40802L23.626 2.98402C23.846 2.92602 24 2.72802 24 2.50002V0.500015C24 0.345015 23.928 0.199015 23.806 0.104015Z" fill="#FF4782"/>
<path d="M9.25 19V19.75C9.25 20.164 8.914 20.5 8.5 20.5C8.086 20.5 7.75 20.164 7.75 19.75V19H6C5.724 19 5.5 19.224 5.5 19.5V23.5C5.5 23.776 5.724 24 6 24H11C11.276 24 11.5 23.776 11.5 23.5V19.5C11.5 19.224 11.276 19 11 19H9.25Z" fill="#FF4782"/>
<path d="M16.25 19V19.75C16.25 20.164 15.914 20.5 15.5 20.5C15.086 20.5 14.75 20.164 14.75 19.75V19H13C12.724 19 12.5 19.224 12.5 19.5V23.5C12.5 23.776 12.724 24 13 24H18C18.276 24 18.5 23.776 18.5 23.5V19.5C18.5 19.224 18.276 19 18 19H16.25Z" fill="#FF4782"/>
<path d="M12.75 13V13.75C12.75 14.164 12.414 14.5 12 14.5C11.586 14.5 11.25 14.164 11.25 13.75V13H9.5C9.224 13 9 13.224 9 13.5V17.5C9 17.776 9.224 18 9.5 18H14.5C14.776 18 15 17.776 15 17.5V13.5C15 13.224 14.776 13 14.5 13H12.75Z" fill="#FF4782"/>
</g>
<defs>
<clipPath id="clip0_217_8320">
<rect width="24" height="24" fill="white"/>
</clipPath>
</defs>
</svg>
