<svg width="23" height="24" viewBox="0 0 23 24" fill="none" xmlns="http://www.w3.org/2000/svg">
<g clip-path="url(#clip0_217_8309)">
<path d="M16.2764 5.37891C16.2764 4.99078 15.9614 4.67578 15.5732 4.67578H7.60449C7.21637 4.67578 6.90137 4.99078 6.90137 5.37891C6.90137 5.76703 7.21637 6.08203 7.60449 6.08203H15.5732C15.9614 6.08203 16.2764 5.76703 16.2764 5.37891Z" fill="#FBB323"/>
<path d="M15.1196 9.59437C15.2269 9.64359 15.3399 9.66328 15.45 9.65672C15.7027 9.64219 15.9385 9.49219 16.0505 9.24609C16.2118 8.89266 16.0557 8.47547 15.7022 8.31469C14.7666 7.88859 14.2725 7.16391 14.0128 6.55078H11.1108C10.823 7.10203 10.6243 7.79203 10.6749 8.61984C10.6988 9.00656 11.0302 9.30094 11.4164 9.27891H11.4197C11.8074 9.255 12.1022 8.92125 12.0783 8.53359C12.0324 7.78875 12.3038 7.20984 12.6061 6.80438C12.9314 7.72172 13.6294 8.91609 15.1196 9.59437Z" fill="#FBB323"/>
<path d="M9.55124 4.20703H13.6256C14.3644 3.03047 14.8659 1.79906 14.9419 0.957186C15.0192 0.098436 14.2673 -0.170626 13.5464 0.102655C12.8255 0.375936 12.1612 0.50953 11.5884 0.50953C11.0156 0.50953 10.3514 0.375936 9.63046 0.102655C8.90952 -0.170626 8.15765 0.098436 8.23499 0.957186C8.31093 1.79906 8.81249 3.03047 9.55124 4.20703Z" fill="#FBB323"/>
<path d="M16.0809 6.435C15.9271 6.50906 15.7551 6.55078 15.5732 6.55078H14.5289C14.8321 7.1625 15.2906 7.6125 15.8962 7.88812C16.1812 8.0175 16.3982 8.25047 16.5079 8.5439C16.6176 8.83734 16.6064 9.15562 16.4765 9.44062C16.2961 9.83718 15.9126 10.0997 15.4767 10.1245C15.4546 10.1259 15.4317 10.1264 15.4087 10.1264C15.2409 10.1264 15.0778 10.0908 14.924 10.02C13.7629 9.49125 13.042 8.67797 12.5953 7.90031C12.5498 8.09531 12.5329 8.29687 12.5461 8.50406C12.5859 9.14906 12.0932 9.7064 11.4482 9.74625C11.4426 9.74625 11.4365 9.74672 11.4309 9.74719C11.4121 9.74812 11.3939 9.74859 11.3756 9.74859C10.7582 9.74859 10.245 9.26531 10.207 8.64844C10.162 7.91062 10.2909 7.20656 10.59 6.55078H7.60449C7.42262 6.55078 7.25059 6.50906 7.09684 6.435C4.04715 8.1464 0.666992 11.7741 0.666992 19.1447C0.666992 23.6794 4.23465 24 11.5889 24C18.9431 24 22.5107 23.6798 22.5107 19.1447C22.5107 11.7741 19.1306 8.1464 16.0804 6.435H16.0809ZM13.7765 13.7283H15.2254L14.827 15.2569H13.762C13.6509 15.9281 13.3936 16.4761 12.9904 16.9012C12.5873 17.3264 12.0136 17.6522 11.2701 17.8791L14.2111 21.4866V21.5948H11.4876L8.16277 17.6255L8.15574 16.2277H9.86527C10.5557 16.2131 11.0025 15.8897 11.2054 15.2569H7.94574L8.34418 13.7283H11.1473C10.935 13.2694 10.5196 13.0303 9.90137 13.0111H7.95277L8.41637 11.048H15.2325L14.834 12.5766H13.3636C13.5759 12.9173 13.7137 13.3012 13.7765 13.7283Z" fill="#FBB323"/>
<path d="M7.60414 4.20702H9.00149C8.33914 3.0989 7.87742 1.95046 7.77758 1.08374C7.3618 1.11468 7.03086 1.29233 6.80633 1.51687C6.47445 1.84874 5.98414 2.94796 7.30227 4.24687C7.39836 4.22062 7.49961 4.20702 7.60414 4.20702Z" fill="#FBB323"/>
<path d="M15.5731 4.20702C15.6777 4.20702 15.7789 4.22062 15.875 4.24687C17.1931 2.94796 16.7028 1.84874 16.3709 1.51687C16.1464 1.29233 15.8155 1.11468 15.3997 1.08374C15.2998 1.95046 14.8381 3.0989 14.1758 4.20702H15.5731Z" fill="#FBB323"/>
</g>
<defs>
<clipPath id="clip0_217_8309">
<rect width="21.8442" height="24" fill="white" transform="translate(0.666992)"/>
</clipPath>
</defs>
</svg>
