<svg width="24" height="24" viewBox="0 0 24 24" fill="none" xmlns="http://www.w3.org/2000/svg">
<path d="M15.4546 6L12.4546 6.48291H9.9375L8.4375 1.98291L9.40331 1.5H16.4856C16.7163 1.5 16.8793 1.72603 16.8063 1.94494L15.4546 6Z" fill="#7270FF"/>
<path d="M8.10256 1.94494L9.45425 6L10.153 6.48291L10.903 6L9.40296 1.5H8.42328C8.19251 1.5 8.02962 1.72603 8.10256 1.94494Z" fill="#4A47FF"/>
<path d="M12.4549 6.36212C12.2549 6.36212 12.0928 6.19998 12.0928 5.99996V3.81479C12.0928 3.61473 12.2549 3.45264 12.4549 3.45264C12.6549 3.45264 12.8171 3.61478 12.8171 3.81479V5.99996C12.8171 6.20003 12.655 6.36212 12.4549 6.36212Z" fill="#4A47FF"/>
<path d="M10.9549 6.36213C10.7549 6.36213 10.5928 6.19999 10.5928 5.99997V4.49997C10.5928 4.29991 10.7549 4.13782 10.9549 4.13782C11.1549 4.13782 11.3171 4.29996 11.3171 4.49997V5.99997C11.3171 6.20004 11.155 6.36213 10.9549 6.36213Z" fill="#4A47FF"/>
<path d="M13.9549 6.36213C13.7549 6.36213 13.5928 6.19999 13.5928 5.99997V4.49997C13.5928 4.29991 13.7549 4.13782 13.9549 4.13782C14.1549 4.13782 14.3171 4.29996 14.3171 4.49997V5.99997C14.3171 6.20004 14.155 6.36213 13.9549 6.36213Z" fill="#4A47FF"/>
<path d="M19.6135 14.6176L16.0186 8.46582L14.9713 7.98291H9.93709L5.78148 14.6149C5.3679 15.4241 5.14941 16.35 5.14941 17.2936C5.14941 20.169 7.24993 22.2214 9.10177 22.4034L10.5505 22.5H15.8066C18.2562 22.5 20.2419 20.169 20.2419 17.2936V17.289C20.2419 16.3483 20.0247 15.4251 19.6135 14.6176Z" fill="#7270FF"/>
<path d="M6.11571 17.2936C6.11571 16.3499 6.3342 15.4241 6.74777 14.6149L10.1296 8.82482C10.2595 8.6025 10.4976 8.46581 10.7551 8.46581H16.0191L15.4547 7.5L12.4547 7.01709L9.45466 7.5L5.29905 14.6149C4.88548 15.4241 4.66699 16.3499 4.66699 17.2936C4.66699 20.169 6.65271 22.5 9.10226 22.5H10.551C8.10143 22.5 6.11571 20.169 6.11571 17.2936Z" fill="#4A47FF"/>
<path d="M16.2046 7.5H10.1533L9.1875 7.45172C8.77327 7.45172 8.4375 7.16423 8.4375 6.75C8.4375 6.33577 8.77327 6.04828 9.1875 6.04828L10.1533 6H16.2046C16.6188 6 16.9546 6.33577 16.9546 6.75C16.9546 7.16423 16.6188 7.5 16.2046 7.5Z" fill="#F7E365"/>
<path d="M9.4038 6.75C9.4038 6.33577 9.73961 6 10.1538 6H8.70508C8.29084 6 7.95508 6.33577 7.95508 6.75C7.95508 7.16419 8.29084 7.5 8.70508 7.5H10.1538C9.73961 7.5 9.4038 7.16419 9.4038 6.75Z" fill="#F3D332"/>
<path d="M12.1171 16.5604C10.6469 16.5604 9.45508 15.3686 9.45508 13.8984C9.45508 13.7117 9.60644 13.5604 9.79309 13.5604C11.2632 13.5604 12.4551 14.7522 12.4551 16.2224C12.4551 16.4091 12.3038 16.5604 12.1171 16.5604Z" fill="#FAF0B0"/>
<path d="M10.6623 13.8984C10.6623 13.8342 10.6802 13.7742 10.7113 13.723C10.4251 13.6178 10.1158 13.5604 9.79309 13.5604C9.60639 13.5604 9.45508 13.7117 9.45508 13.8984C9.45508 15.3686 10.6469 16.5604 12.1171 16.5604C12.2395 16.5604 12.3468 16.4953 12.4061 16.3978C11.3883 16.0238 10.6623 15.0459 10.6623 13.8984Z" fill="#F8E883"/>
<path d="M12.7931 16.5604C14.2633 16.5604 15.4551 15.3686 15.4551 13.8984C15.4551 13.7117 15.3037 13.5604 15.1171 13.5604C13.6469 13.5604 12.4551 14.7522 12.4551 16.2224C12.4551 16.4091 12.6064 16.5604 12.7931 16.5604Z" fill="#FAF0B0"/>
<path d="M13.6623 16.2224C13.6623 15.075 14.3883 14.0971 15.4061 13.7231C15.3468 13.6256 15.2395 13.5605 15.1171 13.5605C13.6469 13.5605 12.4551 14.7523 12.4551 16.2225C12.4551 16.4092 12.6064 16.5605 12.7931 16.5605C13.1158 16.5605 13.4251 16.5031 13.7113 16.3979C13.6803 16.3467 13.6623 16.2866 13.6623 16.2224Z" fill="#F8E883"/>
<path d="M12.6942 13.674C13.7338 12.6345 13.7338 10.949 12.6942 9.90942C12.5622 9.77742 12.3482 9.77742 12.2162 9.90942C11.1766 10.949 11.1766 12.6345 12.2162 13.674C12.3482 13.806 12.5622 13.806 12.6942 13.674Z" fill="#FAF0B0"/>
<path d="M12.9381 10.1895C12.8644 10.092 12.7831 9.99835 12.6942 9.90942C12.5622 9.77742 12.3482 9.77742 12.2162 9.90942C11.1766 10.949 11.1766 12.6345 12.2162 13.674C12.3482 13.806 12.5622 13.806 12.6942 13.674C12.7831 13.5851 12.8644 13.4915 12.9381 13.3939C12.2237 12.4485 12.2237 11.135 12.9381 10.1895Z" fill="#F8E883"/>
<path d="M12.1171 19.3616C10.6469 19.3616 9.45508 18.1698 9.45508 16.6996C9.45508 16.5129 9.60644 16.3616 9.79309 16.3616C11.2632 16.3616 12.4551 17.5534 12.4551 19.0236C12.4551 19.2102 12.3038 19.3616 12.1171 19.3616Z" fill="#FAF0B0"/>
<path d="M10.6623 16.6996C10.6623 16.6354 10.6802 16.5753 10.7113 16.5242C10.4251 16.419 10.1158 16.3616 9.79309 16.3616C9.60639 16.3616 9.45508 16.5129 9.45508 16.6996C9.45508 18.1698 10.6469 19.3616 12.1171 19.3616C12.2395 19.3616 12.3468 19.2965 12.4061 19.199C11.3883 18.8249 10.6623 17.847 10.6623 16.6996Z" fill="#F8E883"/>
<path d="M12.7931 19.3616C14.2633 19.3616 15.4551 18.1698 15.4551 16.6996C15.4551 16.5129 15.3037 16.3616 15.1171 16.3616C13.6469 16.3616 12.4551 17.5534 12.4551 19.0236C12.4551 19.2102 12.6064 19.3616 12.7931 19.3616Z" fill="#FAF0B0"/>
<path d="M13.6623 19.0235C13.6623 17.8761 14.3883 16.8982 15.4061 16.5242C15.3468 16.4267 15.2395 16.3616 15.1171 16.3616C13.6469 16.3616 12.4551 17.5534 12.4551 19.0236C12.4551 19.2103 12.6064 19.3616 12.7931 19.3616C13.1158 19.3616 13.4251 19.3042 13.7113 19.199C13.6803 19.1478 13.6623 19.0878 13.6623 19.0235Z" fill="#F8E883"/>
<path d="M12.4549 20.6726C12.2549 20.6726 12.0928 20.5104 12.0928 20.3104V13.773C12.0928 13.573 12.2549 13.4109 12.4549 13.4109C12.6549 13.4109 12.8171 13.573 12.8171 13.773V20.3104C12.8171 20.5104 12.655 20.6726 12.4549 20.6726Z" fill="#F7E365"/>
</svg>
